<svg t="1782657981215" class="icon" viewBox="0 0 1024 1024" version="1.1" xmlns="http://www.w3.org/2000/svg" p-id="8990"
     width="256" height="256">
    <path d="M376.361349 817.349326a17.032456 17.032456 0 0 1-17.032457-17.032456V213.211464L880.508784 0V667.470347a17.027716 17.027716 0 1 1-34.055432 0V50.741835L393.389065 236.079421v564.237449a17.032456 17.032456 0 0 1-17.027716 17.032456z"
          fill="#142A3B" p-id="8991"></path>
    <path d="M398.499276 888.89228c0 66.413781-59.469013 132.841783-132.851264 132.841782-73.349067 0-132.851264-59.483235-132.851264-132.841782 0-73.372769 59.502197-132.851264 132.851264-132.851264h132.851264v132.851264zM885.623736 711.755681c0 66.423262-59.469013 132.851264-132.851264 132.851264-73.349067 0-132.851264-59.487975-132.851264-132.851264 0-73.368029 59.502197-132.846523 132.851264-132.846523h132.851264v132.846523z"
          fill="#FF3A2F" p-id="8992"></path>
    <path d="M350.677561 756.041016v100.96696c0 66.418521-59.464273 132.846523-132.851264 132.846523-16.932907 0-33.069417-3.289876-47.968668-9.073231 24.185804 25.200261 58.127465 40.952795 95.790383 40.952794 73.38225 0 132.851264-66.428002 132.851264-132.841782v-132.851264H350.677561zM837.802021 578.909158v100.966961c0 66.428002-59.469013 132.851264-132.851263 132.851263-16.928166 0-33.069417-3.294617-47.968669-9.077972 24.185804 25.195521 58.122724 40.957535 95.790383 40.957535 73.38225 0 132.851264-66.428002 132.851264-132.851264v-132.846523h-47.821715z"
          fill="" p-id="8993"></path>
    <path d="M376.366089 396.67183a17.041937 17.041937 0 0 1-6.447019-32.803952l487.119719-199.260303a17.084601 17.084601 0 0 1 22.209034 9.314994 17.041937 17.041937 0 0 1-9.324476 22.213775L382.803628 395.396647c-2.104762 0.853282-4.290112 1.275183-6.437539 1.275183z"
          fill="#142A3B" p-id="8994"></path>
</svg>